<?xml version="1.0" encoding="UTF-8" ?>
<!DOCTYPE svg PUBLIC "-//W3C//DTD SVG 1.1//EN" "http://www.w3.org/Graphics/SVG/1.1/DTD/svg11.dtd">
<svg width="81pt" height="81pt" viewBox="0 0 81 81" version="1.1" xmlns="http://www.w3.org/2000/svg">
<g id="#212121ff">
<path fill="#212121" opacity="1.00" d=" M 0.00 3.68 C 26.53 3.63 53.07 3.79 79.60 3.60 C 79.88 17.40 79.71 31.21 79.73 45.02 C 79.95 49.45 76.96 53.06 73.97 55.97 C 68.90 60.90 63.98 65.99 58.98 71.00 C 56.33 73.72 52.80 75.78 48.90 75.63 C 32.60 75.70 16.30 75.62 0.00 75.65 L 0.00 3.68 M 7.64 22.68 C 7.52 37.90 7.52 53.13 7.64 68.36 C 20.09 68.48 32.54 68.39 44.99 68.42 C 48.97 68.67 53.08 66.37 54.24 62.41 C 55.03 58.57 54.48 54.61 54.31 50.73 C 58.21 50.51 62.21 51.05 66.05 50.10 C 69.32 48.83 72.53 45.79 72.42 42.04 C 72.50 35.59 72.44 29.13 72.36 22.68 C 50.79 22.61 29.21 22.61 7.64 22.68 Z" />
<path fill="#212121" opacity="1.00" d=" M 34.55 31.68 C 38.24 31.69 41.94 31.70 45.64 31.59 C 45.75 35.55 45.75 39.52 45.64 43.48 C 41.94 43.41 38.24 43.41 34.55 43.39 C 34.41 39.49 34.42 35.58 34.55 31.68 Z" />
<path fill="#212121" opacity="1.00" d=" M 51.65 31.71 C 55.55 31.67 59.44 31.67 63.34 31.72 C 63.44 35.59 63.44 39.47 63.37 43.35 C 59.46 43.43 55.54 43.43 51.63 43.37 C 51.56 39.48 51.57 35.59 51.65 31.71 Z" />
<path fill="#212121" opacity="1.00" d=" M 17.41 32.04 C 21.12 31.59 24.88 31.59 28.59 32.06 C 28.56 35.75 28.57 39.44 28.57 43.14 C 24.87 43.49 21.13 43.49 17.43 43.16 C 17.45 39.45 17.45 35.75 17.41 32.04 Z" />
<path fill="#212121" opacity="1.00" d=" M 17.42 48.40 C 21.14 48.40 24.86 48.41 28.58 48.41 C 28.57 52.41 28.58 56.41 28.49 60.41 C 24.86 60.32 21.22 60.32 17.59 60.35 C 17.42 56.37 17.44 52.38 17.42 48.40 Z" />
<path fill="#212121" opacity="1.00" d=" M 35.52 48.32 C 38.87 48.42 42.22 48.44 45.56 48.50 C 45.72 52.19 45.73 55.88 45.62 59.58 C 42.23 59.64 38.85 59.65 35.47 59.75 C 34.00 56.10 34.01 51.95 35.52 48.32 Z" />
</g>
</svg>
