<?xml version="1.0" encoding="UTF-8" ?>
<!DOCTYPE svg PUBLIC "-//W3C//DTD SVG 1.1//EN" "http://www.w3.org/Graphics/SVG/1.1/DTD/svg11.dtd">
<svg width="500pt" height="100pt" viewBox="40 0 500 100" version="1.1" xmlns="http://www.w3.org/2000/svg">
          <g>
            <title>Layer 1</title>
            <rect x="0" y="0" width="500" height="100" style="stroke: none; fill:#ffffff;" transform="skewX(-45)" />
          </g>
<g transform="scale(0.9)">
<g id="#f4511eff">
<path fill="#f4511e" opacity="1.00" d=" M 98.40 10.47 C 102.14 8.94 107.07 11.70 106.79 15.96 C 107.36 20.34 102.10 23.83 98.25 21.74 C 93.44 19.94 93.48 12.07 98.40 10.47 Z" />
<path fill="#f4511e" opacity="1.00" d=" M 120.29 20.67 C 118.22 18.42 119.96 14.28 123.05 14.32 C 125.36 14.01 126.45 16.31 127.52 17.89 C 127.04 19.05 126.57 20.20 126.11 21.37 C 124.25 21.64 121.51 22.63 120.29 20.67 Z" />
<path fill="#f4511e" opacity="1.00" d=" M 76.47 21.70 C 80.61 20.00 85.70 22.49 86.54 26.94 C 87.50 30.99 84.23 35.68 79.97 35.63 C 75.69 36.30 71.65 32.17 72.14 27.94 C 72.17 25.24 74.09 22.82 76.47 21.70 Z" />
<path fill="#f4511e" opacity="1.00" d=" M 132.49 27.41 C 134.39 27.08 136.46 26.98 137.30 29.08 C 136.93 29.92 136.57 30.76 136.22 31.60 C 135.00 31.56 133.79 31.50 132.58 31.42 C 132.52 30.09 132.50 28.75 132.49 27.41 Z" />
<path fill="#f4511e" opacity="1.00" d=" M 63.59 40.75 C 69.66 38.42 76.70 43.57 76.44 49.99 C 76.59 57.19 67.19 62.35 61.43 57.62 C 55.09 53.69 56.47 42.98 63.59 40.75 Z" />
</g>
<g id="#283593ff">
<path fill="#283593" opacity="1.00" d=" M 174.20 15.44 C 178.94 15.27 183.79 14.96 188.49 15.80 C 196.56 18.23 197.90 30.60 191.63 35.60 C 187.52 38.68 182.08 37.37 177.33 37.54 C 176.48 42.59 176.91 47.72 176.80 52.81 C 175.77 52.68 174.75 52.55 173.73 52.42 C 174.01 40.23 173.59 28.03 173.94 15.85 L 174.20 15.44 M 177.05 18.36 C 176.35 23.79 177.07 29.29 177.23 34.74 C 180.67 34.67 184.16 35.05 187.57 34.43 C 194.02 32.27 194.11 21.57 188.19 18.74 C 184.57 17.83 180.74 18.18 177.05 18.36 Z" />
<path fill="#283593" opacity="1.00" d=" M 291.99 21.00 C 295.51 12.81 309.63 12.74 312.83 21.23 C 313.56 22.85 313.51 24.68 313.73 26.41 C 310.00 27.08 310.67 22.93 309.12 20.84 C 306.22 16.74 299.52 16.78 296.07 20.15 C 292.77 23.99 293.33 29.33 293.28 34.03 C 293.32 38.49 292.87 43.47 295.79 47.21 C 299.30 51.75 306.66 51.32 310.60 47.58 C 311.00 44.31 310.71 41.00 310.66 37.72 C 307.91 37.74 305.16 37.75 302.41 37.70 L 302.66 35.38 C 306.20 34.30 310.01 35.07 313.67 34.88 C 313.60 39.55 314.19 44.31 313.43 48.94 C 308.65 54.21 299.31 55.04 294.11 49.92 C 290.90 46.46 290.11 41.53 290.22 36.98 C 290.38 31.64 289.54 25.96 291.99 21.00 Z" />
<path fill="#283593" opacity="1.00" d=" M 372.13 29.90 C 368.43 24.69 371.72 16.43 378.07 15.34 C 384.27 13.29 391.32 17.68 392.17 24.16 C 393.27 25.98 390.64 26.30 389.52 26.37 C 388.95 23.03 387.69 18.99 383.90 18.15 C 378.95 16.16 372.28 20.41 373.77 26.09 C 376.00 32.09 383.54 31.77 388.04 35.17 C 393.13 38.42 393.76 46.36 389.42 50.49 C 384.32 55.00 375.40 54.08 371.48 48.46 C 370.01 46.56 369.92 44.06 369.60 41.78 C 373.30 40.78 372.76 44.81 374.00 46.98 C 376.66 50.75 382.37 51.52 386.22 49.20 C 390.02 46.97 390.34 40.77 386.76 38.19 C 382.23 34.84 375.52 34.87 372.13 29.90 Z" />
<path fill="#283593" opacity="1.00" d=" M 201.12 15.56 C 207.59 15.49 214.06 15.53 220.52 15.53 C 220.53 16.48 220.54 17.43 220.55 18.37 C 215.11 18.37 209.67 18.39 204.23 18.36 C 204.26 23.03 204.08 27.70 204.39 32.37 C 209.12 32.18 213.86 32.26 218.60 32.27 C 218.49 33.27 218.38 34.28 218.28 35.28 C 213.59 35.16 208.90 35.23 204.22 35.21 C 204.22 40.17 204.24 45.14 204.21 50.11 C 209.67 50.19 215.13 50.21 220.59 50.08 C 220.60 50.86 220.62 52.43 220.63 53.21 C 214.13 52.35 207.59 53.73 201.10 52.77 C 201.17 40.37 201.13 27.96 201.12 15.56 Z" />
<path fill="#283593" opacity="1.00" d=" M 223.40 15.65 C 231.41 15.62 239.43 15.65 247.45 15.63 C 247.49 16.58 247.54 17.53 247.58 18.48 C 243.98 18.48 240.37 18.49 236.76 18.52 C 236.76 29.96 236.78 41.41 236.75 52.86 C 236.01 52.86 234.54 52.86 233.80 52.87 C 233.70 41.40 233.82 29.93 233.73 18.47 C 230.27 18.50 226.81 18.50 223.36 18.46 C 223.37 17.75 223.39 16.35 223.40 15.65 Z" />
<path fill="#283593" opacity="1.00" d=" M 252.29 52.71 C 252.31 40.31 252.22 27.91 252.34 15.51 C 257.45 15.82 262.78 14.77 267.71 16.42 C 275.64 19.97 275.34 33.29 267.24 36.50 C 269.41 42.02 272.29 47.21 274.75 52.60 C 273.64 52.63 272.53 52.66 271.43 52.68 C 269.08 47.58 266.43 42.62 264.23 37.45 C 261.27 37.31 258.30 37.31 255.33 37.33 C 255.35 42.42 255.30 47.50 255.38 52.59 C 254.35 52.63 253.32 52.67 252.29 52.71 M 255.33 18.38 C 255.35 23.74 255.31 29.10 255.36 34.47 C 258.58 34.42 261.82 34.68 265.02 34.24 C 271.70 32.50 272.42 21.43 266.01 18.90 C 262.55 17.93 258.88 18.51 255.33 18.38 Z" />
<path fill="#283593" opacity="1.00" d=" M 320.89 15.48 C 322.77 15.06 324.51 15.64 324.14 17.93 C 324.18 28.68 324.05 39.43 324.19 50.18 C 329.27 50.18 334.36 50.07 339.44 50.26 C 339.44 50.89 339.42 52.13 339.41 52.76 C 333.24 53.23 327.03 53.03 320.86 52.81 C 320.91 40.37 320.85 27.92 320.89 15.48 Z" />
<path fill="#283593" opacity="1.00" d=" M 341.07 53.35 C 344.29 40.52 348.98 28.09 352.71 15.39 C 354.64 15.13 356.13 15.85 356.39 17.90 C 360.13 29.51 363.58 41.21 367.57 52.73 C 366.43 52.76 365.29 52.79 364.16 52.81 C 363.12 49.41 362.09 46.02 361.15 42.59 C 356.44 42.46 351.71 42.45 347.00 42.62 C 346.26 45.96 345.43 49.30 344.11 52.47 C 343.35 52.69 341.83 53.13 341.07 53.35 M 354.05 20.08 C 352.24 26.64 350.10 33.10 348.19 39.63 C 352.13 39.68 356.08 39.69 360.03 39.63 C 358.21 33.06 356.13 26.57 354.05 20.08 Z" />
<path fill="#283593" opacity="1.00" d=" M 397.80 15.57 C 404.31 15.49 410.83 15.53 417.35 15.54 C 417.37 16.24 417.40 17.65 417.41 18.36 C 411.85 18.45 406.27 18.20 400.71 18.54 C 401.09 23.14 400.18 27.85 401.36 32.37 C 406.02 32.18 410.68 32.22 415.34 32.32 C 415.38 32.94 415.46 34.17 415.51 34.79 C 410.66 35.62 405.72 35.06 400.83 35.22 C 400.73 40.02 400.88 44.83 400.68 49.64 C 406.20 50.76 411.89 49.88 417.48 50.18 C 417.52 50.85 417.60 52.18 417.64 52.85 C 411.00 52.81 404.30 53.67 397.71 52.65 C 397.90 40.29 397.73 27.93 397.80 15.57 Z" />
<path fill="#283593" opacity="1.00" d=" M 422.59 15.55 C 428.82 16.03 436.47 13.73 441.37 18.78 C 443.93 23.09 444.00 28.29 442.10 32.86 C 440.84 34.51 439.11 35.67 437.43 36.84 C 440.04 42.08 442.69 47.30 444.99 52.68 C 443.89 52.67 442.80 52.65 441.71 52.64 C 439.36 47.48 436.76 42.45 434.35 37.33 C 431.42 37.33 428.50 37.34 425.58 37.36 C 425.60 42.47 425.59 47.59 425.58 52.70 C 424.84 52.70 423.34 52.68 422.59 52.68 C 422.58 40.30 422.58 27.92 422.59 15.55 M 425.58 18.40 C 425.60 23.74 425.59 29.09 425.58 34.43 C 429.86 34.12 435.01 35.73 438.48 32.44 C 442.02 28.67 441.49 21.05 436.38 18.88 C 432.86 17.97 429.17 18.48 425.58 18.40 Z" />
<path fill="#283593" opacity="1.00" d=" M 126.37 40.54 C 130.49 39.46 135.23 41.65 136.65 45.75 C 139.03 50.89 134.74 57.60 129.06 57.49 C 124.44 57.88 119.82 53.73 120.12 49.00 C 119.80 45.15 122.71 41.50 126.37 40.54 Z" />
<path fill="#283593" opacity="1.00" d=" M 119.47 66.76 C 124.17 63.25 131.32 68.54 129.45 74.07 C 128.51 79.35 120.60 80.54 117.73 76.27 C 115.53 73.37 116.30 68.64 119.47 66.76 Z" />
<path fill="#283593" opacity="1.00" d=" M 57.71 68.66 C 59.69 68.26 61.45 68.81 62.46 70.66 L 62.44 71.35 C 61.49 72.48 60.33 73.99 58.65 73.26 C 56.76 72.39 57.60 70.23 57.71 68.66 Z" />
<path fill="#283593" opacity="1.00" d=" M 95.19 83.05 C 94.25 79.11 98.16 75.28 102.08 76.22 C 105.05 76.53 106.49 79.52 107.41 81.99 C 106.73 85.38 104.31 87.74 100.99 88.54 C 98.48 87.59 95.21 86.25 95.19 83.05 Z" />
<path fill="#283593" opacity="1.00" d=" M 75.42 77.37 C 76.71 75.99 79.24 76.01 80.36 77.58 C 82.70 79.42 80.94 83.77 78.03 83.55 C 74.82 84.09 72.82 79.30 75.42 77.37 Z" />
</g>
<g id="#404049e3">
<path fill="#404049" opacity="0.89" d=" M 441.37 18.78 C 444.39 22.76 444.48 28.55 442.10 32.86 C 444.00 28.29 443.93 23.09 441.37 18.78 Z" />
<path fill="#404049" opacity="0.89" d=" M 371.40 68.16 C 372.76 68.18 373.41 69.53 374.31 70.33 C 375.75 69.67 376.98 68.32 378.61 68.24 C 378.09 69.89 376.87 71.80 375.01 72.14 C 374.43 71.95 373.26 71.56 372.68 71.37 C 372.27 70.28 371.81 69.23 371.40 68.16 Z" />
<path fill="#404049" opacity="0.89" d=" M 215.37 72.50 C 216.31 72.57 217.26 72.63 218.22 72.70 C 218.22 75.61 218.13 78.53 218.46 81.44 C 219.10 81.41 220.38 81.34 221.03 81.31 C 221.39 78.39 221.29 75.44 221.35 72.50 C 222.29 72.56 223.23 72.62 224.17 72.67 C 224.17 76.18 224.76 79.90 223.11 83.15 C 222.31 83.46 220.72 84.07 219.93 84.38 C 218.31 83.69 216.09 83.35 215.58 81.36 C 214.98 78.45 215.34 75.45 215.37 72.50 Z" />
<path fill="#404049" opacity="0.89" d=" M 256.23 72.42 C 257.15 72.52 258.08 72.61 259.01 72.71 C 260.18 74.78 261.36 76.86 262.50 78.95 C 262.55 76.84 262.60 74.73 262.65 72.62 C 263.34 72.60 264.73 72.58 265.42 72.57 C 265.50 76.33 265.51 80.09 265.48 83.86 C 264.47 83.83 263.46 83.80 262.46 83.77 C 261.38 81.82 260.32 79.87 259.36 77.87 C 259.19 79.90 258.98 81.93 258.74 83.96 C 258.10 83.93 256.81 83.88 256.16 83.86 C 256.03 80.05 256.00 76.23 256.23 72.42 Z" />
<path fill="#404049" opacity="0.89" d=" M 362.83 72.74 C 363.87 72.66 364.92 72.57 365.97 72.49 C 365.29 76.17 363.75 79.62 363.00 83.28 C 361.84 83.94 360.53 84.74 359.36 83.58 C 357.78 80.05 356.90 76.27 355.69 72.61 C 356.52 72.62 358.18 72.64 359.01 72.64 C 359.59 75.11 360.21 77.57 360.83 80.03 C 361.59 77.63 362.24 75.20 362.83 72.74 Z" />
<path fill="#404049" opacity="0.89" d=" M 384.28 72.58 C 387.03 72.50 389.80 72.53 392.55 72.84 C 392.27 73.37 391.71 74.45 391.43 74.98 C 389.80 75.06 387.10 74.13 386.79 76.62 C 388.66 77.15 391.95 76.32 391.61 79.31 C 390.15 79.34 388.69 79.37 387.24 79.39 L 387.24 81.64 C 388.84 81.64 390.45 81.65 392.06 81.67 C 392.17 85.93 386.88 83.82 384.25 83.90 C 384.22 80.13 384.22 76.36 384.28 72.58 Z" />
<path fill="#404049" opacity="0.89" d=" M 417.32 72.49 C 418.27 72.57 419.22 72.64 420.17 72.72 C 419.99 76.34 420.70 80.12 419.84 83.63 C 419.21 83.75 417.97 83.98 417.34 84.10 C 417.27 82.52 417.21 80.95 417.16 79.38 C 416.27 79.38 414.49 79.39 413.59 79.39 C 413.59 80.87 413.59 82.36 413.59 83.84 C 412.63 83.82 411.67 83.80 410.71 83.78 C 410.71 80.06 410.72 76.34 410.74 72.61 C 411.44 72.60 412.84 72.59 413.54 72.58 C 413.54 74.00 413.55 75.42 413.56 76.85 C 414.76 76.89 415.97 76.93 417.19 76.97 C 417.22 75.47 417.26 73.98 417.32 72.49 Z" />
<path fill="#404049" opacity="0.89" d=" M 425.36 72.55 C 426.30 72.57 427.24 72.59 428.20 72.62 C 429.42 74.71 430.57 76.83 431.65 79.00 C 431.74 76.88 431.83 74.77 431.92 72.65 C 432.62 72.63 434.00 72.58 434.69 72.55 C 434.73 76.30 434.93 80.06 434.61 83.80 C 431.02 85.37 430.04 79.94 428.34 77.73 C 428.30 79.76 428.26 81.78 428.23 83.81 C 427.51 83.83 426.07 83.86 425.35 83.88 C 425.27 80.10 425.27 76.32 425.36 72.55 Z" />
<path fill="#404049" opacity="0.89" d=" M 172.94 72.44 C 173.70 72.52 175.24 72.70 176.00 72.79 C 176.85 75.16 177.38 77.63 177.94 80.09 C 178.70 77.62 179.36 75.13 179.99 72.64 C 180.80 72.63 182.40 72.61 183.20 72.59 C 182.18 76.10 181.31 79.68 179.89 83.06 C 179.17 84.34 177.54 84.80 176.51 83.57 C 174.91 80.01 173.91 76.21 172.94 72.44 Z" />
<path fill="#404049" opacity="0.89" d=" M 187.65 76.13 C 187.74 71.20 196.39 71.36 196.23 76.38 C 194.39 75.99 192.59 75.45 190.78 74.96 C 191.83 77.80 195.99 77.63 196.56 80.95 C 196.20 81.59 195.49 82.89 195.13 83.53 C 193.06 83.89 190.96 83.85 188.90 83.42 C 188.44 82.71 187.52 81.28 187.06 80.57 C 189.18 79.44 191.03 81.19 192.86 82.03 C 193.65 78.42 188.20 79.32 187.65 76.13 Z" />
<path fill="#404049" opacity="0.89" d=" M 200.51 72.71 C 203.78 72.52 207.06 72.54 210.34 72.58 L 210.41 74.77 C 209.62 74.78 208.05 74.81 207.26 74.83 C 207.22 77.26 207.26 79.69 207.16 82.12 C 207.66 84.05 205.32 83.75 204.21 84.09 C 204.00 81.20 204.55 78.16 203.73 75.36 C 202.43 74.71 200.73 74.49 200.51 72.71 Z" />
<path fill="#404049" opacity="0.89" d=" M 229.70 72.55 C 232.76 72.58 237.83 71.79 238.39 75.99 C 238.91 79.34 235.11 80.41 232.51 80.46 C 232.46 81.71 232.41 82.97 232.36 84.22 C 231.70 84.19 230.39 84.14 229.73 84.12 C 229.64 80.26 229.64 76.40 229.70 72.55 M 232.60 74.77 C 232.52 75.78 232.44 76.78 232.37 77.79 C 233.44 77.73 234.51 77.65 235.59 77.57 C 235.45 76.69 235.31 75.82 235.18 74.94 C 234.32 74.88 233.46 74.82 232.60 74.77 Z" />
<path fill="#404049" opacity="0.89" d=" M 243.59 72.59 C 246.21 72.57 248.83 72.56 251.45 72.56 C 252.33 76.28 246.86 73.75 245.78 76.48 C 247.69 77.13 251.16 76.26 250.76 79.33 C 249.31 79.36 247.86 79.38 246.42 79.40 C 246.42 79.95 246.44 81.05 246.44 81.60 C 248.14 81.63 249.84 81.67 251.55 81.71 C 251.57 85.87 246.07 83.83 243.53 83.83 C 243.56 80.08 243.56 76.33 243.59 72.59 Z" />
<path fill="#404049" opacity="0.89" d=" M 270.71 72.61 C 271.41 72.60 272.81 72.58 273.50 72.57 C 273.52 74.00 273.54 75.42 273.55 76.85 C 275.08 74.55 276.57 71.47 279.97 72.56 C 278.83 74.34 277.65 76.08 276.44 77.81 C 277.84 79.86 279.18 81.99 279.75 84.44 C 276.63 84.84 275.52 81.85 273.91 79.88 C 273.73 81.21 273.57 82.55 273.41 83.89 C 272.74 83.87 271.39 83.83 270.71 83.82 C 270.67 80.08 270.67 76.35 270.71 72.61 Z" />
<path fill="#404049" opacity="0.89" d=" M 283.55 72.65 C 284.37 72.66 286.01 72.68 286.83 72.69 C 287.40 74.15 287.98 75.61 288.58 77.06 C 289.10 75.61 289.59 74.15 290.09 72.69 C 290.92 72.67 292.58 72.63 293.41 72.62 C 291.79 76.09 289.67 79.55 290.11 83.56 C 289.19 83.71 288.28 83.87 287.37 84.04 C 287.33 79.89 285.41 76.23 283.55 72.65 Z" />
<path fill="#404049" opacity="0.89" d=" M 305.83 72.59 C 308.57 72.80 312.07 71.72 314.08 74.20 C 314.76 75.80 315.08 78.30 313.29 79.32 C 311.96 80.18 310.30 80.18 308.80 80.49 C 309.17 82.26 308.02 86.21 305.92 83.36 C 305.63 79.77 305.86 76.18 305.83 72.59 M 308.64 75.23 C 308.65 75.86 308.66 77.10 308.67 77.72 C 309.66 77.70 310.65 77.67 311.65 77.65 C 311.66 77.05 311.67 75.87 311.68 75.27 C 310.66 75.26 309.65 75.24 308.64 75.23 Z" />
<path fill="#404049" opacity="0.89" d=" M 319.77 72.57 C 322.53 72.80 325.99 71.73 328.09 74.11 C 329.02 76.08 327.65 77.96 327.39 79.90 C 327.66 81.47 328.16 82.99 328.55 84.53 C 326.08 84.50 324.91 82.55 324.08 80.56 C 323.74 80.44 323.04 80.19 322.70 80.07 C 322.61 81.52 322.53 82.97 322.44 84.42 C 321.74 84.18 320.35 83.69 319.66 83.45 C 319.76 79.83 319.76 76.20 319.77 72.57 M 322.55 75.17 C 322.57 75.81 322.60 77.09 322.61 77.73 C 323.53 77.68 324.46 77.63 325.39 77.58 C 325.46 77.02 325.60 75.89 325.67 75.33 C 324.62 75.28 323.59 75.23 322.55 75.17 Z" />
<path fill="#404049" opacity="0.89" d=" M 336.11 72.96 C 338.55 71.86 341.78 72.84 342.74 75.46 C 344.56 78.84 342.44 84.49 338.05 83.90 C 332.58 83.98 331.71 75.21 336.11 72.96 M 336.42 75.46 C 336.38 76.92 336.29 78.38 336.42 79.84 C 336.26 81.54 338.97 82.39 339.76 80.89 C 340.95 79.17 340.19 77.02 339.89 75.15 C 338.73 75.24 337.57 75.35 336.42 75.46 Z" />
<path fill="#404049" opacity="0.89" d=" M 370.63 76.08 C 370.09 71.18 380.13 71.36 378.65 76.47 C 377.06 75.91 375.49 75.34 373.89 74.82 C 374.43 77.91 378.89 77.62 379.50 80.89 C 379.15 81.53 378.44 82.82 378.08 83.47 C 376.03 83.86 373.94 83.87 371.89 83.51 C 371.41 82.77 370.45 81.28 369.97 80.54 C 372.15 79.09 373.91 81.23 375.78 82.13 C 376.72 78.48 370.92 79.37 370.63 76.08 Z" />
<path fill="#404049" opacity="0.89" d=" M 397.87 73.86 C 400.46 71.14 405.61 72.71 406.00 76.56 C 405.44 76.56 404.30 76.58 403.74 76.59 C 402.63 75.21 401.05 75.09 399.43 75.35 C 399.57 77.65 398.35 81.89 401.93 81.68 C 403.00 80.37 404.30 79.48 406.04 80.10 C 405.56 82.69 403.28 83.78 400.98 84.50 C 396.30 83.45 395.12 77.29 397.87 73.86 Z" />
<path fill="#404049" opacity="0.89" d=" M 439.29 72.52 C 442.60 71.43 443.26 74.62 444.09 76.97 C 445.06 74.75 445.79 71.74 448.96 72.37 C 447.83 75.89 445.47 79.04 445.52 82.87 C 445.56 84.37 443.21 85.13 443.06 83.16 C 442.90 79.27 440.84 75.96 439.29 72.52 Z" />
</g>
</g>
</svg>
