<?xml version="1.0" encoding="UTF-8" ?>
<!DOCTYPE svg PUBLIC "-//W3C//DTD SVG 1.1//EN" "http://www.w3.org/Graphics/SVG/1.1/DTD/svg11.dtd">
<svg width="81pt" height="81pt" viewBox="0 0 81 81" version="1.1" xmlns="http://www.w3.org/2000/svg">
<g id="#212121ff">
<path fill="#212121" opacity="1.00" d=" M 44.30 10.01 C 49.02 9.13 53.90 10.07 58.37 11.62 C 61.25 12.58 63.59 15.75 62.08 18.77 C 59.65 21.75 55.86 23.45 52.03 23.45 C 46.30 23.54 39.54 24.37 35.09 19.94 C 33.34 18.72 33.01 16.14 34.38 14.52 C 36.79 11.59 40.78 10.79 44.30 10.01 Z" />
<path fill="#212121" opacity="1.00" d=" M 33.71 22.98 C 38.10 24.32 42.29 26.71 46.99 26.68 C 52.40 27.09 57.34 24.52 62.54 23.56 C 62.44 25.93 61.38 28.22 59.08 29.15 C 51.76 32.54 42.70 32.38 35.63 28.42 C 33.45 27.45 33.66 24.96 33.71 22.98 Z" />
<path fill="#212121" opacity="1.00" d=" M 33.59 30.85 C 38.31 32.23 42.97 34.24 48.00 33.86 C 53.03 34.19 57.76 32.35 62.43 30.78 C 62.33 32.56 62.44 34.65 60.77 35.78 C 55.90 39.73 49.05 39.65 43.15 38.88 C 38.98 38.13 33.35 35.96 33.59 30.85 Z" />
<path fill="#212121" opacity="1.00" d=" M 10.33 33.00 C 15.53 32.04 21.11 32.64 25.80 35.14 C 27.79 36.32 30.03 38.32 29.42 40.91 C 26.59 45.87 20.19 46.68 15.00 46.54 C 9.81 46.68 3.42 45.89 0.58 40.92 C -0.04 35.52 5.99 33.39 10.33 33.00 Z" />
<path fill="#212121" opacity="1.00" d=" M 33.52 38.68 C 39.18 40.49 45.13 40.99 50.79 42.67 C 49.31 44.53 47.82 47.02 45.03 46.50 C 40.35 46.42 33.55 44.36 33.52 38.68 Z" />
<path fill="#212121" opacity="1.00" d=" M 60.46 41.73 C 64.19 40.99 68.32 40.75 71.89 42.25 C 79.89 46.69 82.00 58.41 76.58 65.63 C 73.83 69.09 69.34 70.83 64.99 70.72 C 59.82 71.00 55.54 67.25 52.69 63.32 C 47.31 55.94 52.03 44.36 60.46 41.73 Z" />
<path fill="#212121" opacity="1.00" d=" M 0.00 45.78 C 4.26 47.41 8.63 48.95 13.19 49.50 C 19.13 50.19 24.55 47.15 30.24 46.01 C 29.61 49.77 26.63 52.36 23.02 53.20 C 15.29 55.69 5.96 54.82 0.00 48.87 L 0.00 45.78 Z" />
<path fill="#212121" opacity="1.00" d=" M 33.67 46.07 C 37.95 47.26 42.19 48.58 46.42 49.93 C 46.26 51.33 46.09 52.72 45.91 54.12 C 41.02 53.99 32.89 52.59 33.67 46.07 Z" />
<path fill="#212121" opacity="1.00" d=" M 0.00 53.47 C 4.79 55.31 9.81 56.91 15.00 56.85 C 20.27 56.97 25.20 54.86 30.28 53.80 C 29.28 55.83 28.48 58.21 26.38 59.37 C 21.07 62.51 14.45 62.84 8.53 61.53 C 5.04 60.81 2.04 58.63 0.00 55.74 L 0.00 53.47 Z" />
<path fill="#212121" opacity="1.00" d=" M 33.56 53.85 C 37.58 54.88 41.65 55.89 45.42 57.65 C 46.63 58.78 46.07 60.62 46.26 62.07 C 41.01 61.86 34.12 60.15 33.56 53.85 Z" />
<path fill="#212121" opacity="1.00" d=" M 0.00 60.75 C 4.92 63.05 10.30 64.65 15.78 64.49 C 20.78 64.35 25.47 62.43 30.24 61.15 C 29.60 63.05 29.47 65.48 27.53 66.59 C 22.40 69.95 15.87 69.87 9.99 69.32 C 6.04 68.99 2.63 66.68 0.00 63.84 L 0.00 60.75 Z" />
<path fill="#212121" opacity="1.00" d=" M 33.50 61.67 C 37.58 62.69 41.67 63.60 45.80 64.38 C 48.41 64.51 49.18 67.36 50.33 69.21 C 45.12 69.87 39.21 69.70 35.14 65.93 C 33.75 64.95 33.87 63.14 33.50 61.67 Z" />
</g>
</svg>
