<?xml version="1.0" encoding="UTF-8" ?>
<!DOCTYPE svg PUBLIC "-//W3C//DTD SVG 1.1//EN" "http://www.w3.org/Graphics/SVG/1.1/DTD/svg11.dtd">
<svg width="81pt" height="81pt" viewBox="0 0 81 81" version="1.1" xmlns="http://www.w3.org/2000/svg">
<g id="#212121ff">
<path fill="#212121" opacity="1.00" d=" M 33.99 1.76 C 40.26 -0.45 47.25 1.12 52.95 4.17 C 59.97 9.14 63.63 18.49 61.90 26.92 C 60.96 32.52 57.92 37.42 55.68 42.55 C 51.83 52.05 45.15 59.97 40.57 69.10 C 37.07 65.78 35.46 61.12 32.87 57.16 C 28.38 50.05 24.88 42.38 21.10 34.89 C 18.07 29.08 17.36 22.11 19.00 15.79 C 21.72 9.32 27.14 3.72 33.99 1.76 M 36.51 14.66 C 31.17 17.26 30.77 25.96 36.07 28.82 C 41.30 31.91 49.23 27.40 47.86 21.04 C 47.97 15.28 41.24 12.86 36.51 14.66 Z" />
<path fill="#212121" opacity="1.00" d=" M 16.61 65.51 C 18.73 62.35 22.21 59.81 26.00 59.24 C 28.53 58.77 28.88 61.93 29.88 63.54 C 27.09 64.95 24.40 66.60 22.27 68.94 C 27.05 73.26 33.77 74.41 39.99 74.60 C 46.14 74.54 52.42 73.28 57.68 69.97 C 57.50 66.28 53.56 65.36 50.98 63.66 C 51.77 62.10 52.47 60.50 53.17 58.89 C 57.83 59.67 62.21 62.76 64.04 67.17 C 64.99 71.51 60.76 74.59 57.52 76.57 C 50.79 80.89 42.50 79.56 34.94 79.71 C 28.87 79.84 23.17 77.08 18.37 73.59 C 15.72 71.86 15.98 68.21 16.61 65.51 Z" />
</g>
</svg>
