<?xml version="1.0" encoding="UTF-8" ?>
<!DOCTYPE svg PUBLIC "-//W3C//DTD SVG 1.1//EN" "http://www.w3.org/Graphics/SVG/1.1/DTD/svg11.dtd">
<svg width="70pt" height="70pt" viewBox="0 0 70 70" version="1.1" xmlns="http://www.w3.org/2000/svg">
<g id="#ffffffff">
<path fill="#ffffff" opacity="1.00" d=" M 16.73 20.75 C 20.71 14.84 29.00 11.96 35.70 14.58 C 43.41 17.03 48.43 25.87 46.39 33.76 C 46.29 35.12 45.09 36.52 45.81 37.84 C 49.67 42.08 54.34 45.68 57.72 50.29 C 57.65 54.17 53.52 58.54 49.53 57.54 C 45.33 53.55 41.29 49.38 37.18 45.29 C 30.93 48.04 23.07 46.69 18.43 41.57 C 12.89 36.22 12.32 26.98 16.73 20.75 M 26.54 19.79 C 23.87 20.76 21.67 22.85 20.38 25.36 C 17.24 31.25 20.97 39.26 27.43 40.79 C 34.15 43.10 41.73 36.97 41.41 29.99 C 41.47 22.68 33.39 17.05 26.54 19.79 Z" />
</g>
</svg>
